STARTFONT 2.1
COMMENT +
COMMENT  Copyright (c) 1989, 1991 Adobe Systems Incorporated.
COMMENT  Copyright 1996, 1997 BIZNET Poland, Inc. All Rights Reserved.
COMMENT -
FONT -BIZNET-Chimera-Regular-I-Normal--15-140-75-75-P-79-ISO8859-2
SIZE 14 75 75
FONTBOUNDINGBOX 13 14 -2 -3
STARTPROPERTIES 24
FOUNDRY "BIZNET"
FAMILY_NAME "BIZNET Chimera"
WEIGHT_NAME "Regular"
SLANT "I"
SETWIDTH_NAME "Normal"
ADD_STYLE_NAME ""
PIXEL_SIZE 15
POINT_SIZE 140
RESOLUTION_X 75
RESOLUTION_Y 75
SPACING "P"
AVERAGE_WIDTH 79
CHARSET_REGISTRY "ISO8859"
CHARSET_ENCODING "2"
CAP_HEIGHT 10
X_HEIGHT 7
FONT_ASCENT 12
FONT_DESCENT 3
FACE_NAME "BIZNET Chimera Italic"
DEFAULT_CHAR 32
RELATIVE_SETWIDTH 50
CHARSET_COLLECTIONS "ASCII ISO8859-2"
COPYRIGHT "Copyright (c) 1989, 1991 Adobe Systems Incorporated.  All rights reserved. Copyright (c) 1996 BIZNET Poland, Inc. All Rights Reserved."
NOTICE "The name "BIZNET" is a registered trademark of BIZNET Poland, Inc."
ENDPROPERTIES
CHARS 189
STARTCHAR exclam
ENCODING 33
SWIDTH 240 0
DWIDTH 3 0
BBX 3 10 0 0
BITMAP
20
20
20
60
40
40
40
00
80
80
ENDCHAR
STARTCHAR quotedbl
ENCODING 34
SWIDTH 402 0
DWIDTH 6 0
BBX 3 3 2 7
BITMAP
A0
A0
A0
ENDCHAR
STARTCHAR numbersign
ENCODING 35
SWIDTH 530 0
DWIDTH 8 0
BBX 7 10 0 0
BITMAP
14
14
14
7E
28
28
FC
50
50
50
ENDCHAR
STARTCHAR dollar
ENCODING 36
SWIDTH 530 0
DWIDTH 8 0
BBX 7 12 1 -1
BITMAP
08
1E
2A
50
70
38
1C
14
24
A8
F0
20
ENDCHAR
STARTCHAR percent
ENCODING 37
SWIDTH 826 0
DWIDTH 12 0
BBX 11 10 1 0
BITMAP
7080
CF00
8900
9A00
7400
09C0
0B20
1220
2260
41C0
ENDCHAR
STARTCHAR ampersand
ENCODING 38
SWIDTH 725 0
DWIDTH 11 0
BBX 10 10 0 0
BITMAP
1C00
2200
2200
1400
3840
4840
8480
8300
C600
7980
ENDCHAR
STARTCHAR quoteright
ENCODING 39
SWIDTH 216 0
DWIDTH 4 0
BBX 2 3 1 7
BITMAP
40
40
80
ENDCHAR
STARTCHAR parenleft
ENCODING 40
SWIDTH 350 0
DWIDTH 5 0
BBX 5 12 1 -2
BITMAP
18
20
60
40
40
C0
80
80
80
80
80
40
ENDCHAR
STARTCHAR parenright
ENCODING 41
SWIDTH 350 0
DWIDTH 5 0
BBX 5 12 -1 -2
BITMAP
10
08
08
08
08
08
18
10
10
30
20
C0
ENDCHAR
STARTCHAR asterisk
ENCODING 42
SWIDTH 412 0
DWIDTH 6 0
BBX 6 6 0 4
BITMAP
10
54
38
70
A8
20
ENDCHAR
STARTCHAR plus
ENCODING 43
SWIDTH 570 0
DWIDTH 8 0
BBX 7 7 0 0
BITMAP
10
10
10
FE
10
10
10
ENDCHAR
STARTCHAR comma
ENCODING 44
SWIDTH 265 0
DWIDTH 4 0
BBX 2 3 0 -1
BITMAP
40
40
80
ENDCHAR
STARTCHAR minus
ENCODING 45
SWIDTH 570 0
DWIDTH 8 0
BBX 7 1 0 3
BITMAP
FE
ENDCHAR
STARTCHAR period
ENCODING 46
SWIDTH 265 0
DWIDTH 4 0
BBX 1 2 1 0
BITMAP
80
80
ENDCHAR
STARTCHAR slash
ENCODING 47
SWIDTH 270 0
DWIDTH 4 0
BBX 3 10 0 0
BITMAP
20
20
20
40
40
40
40
80
80
80
ENDCHAR
STARTCHAR zero
ENCODING 48
SWIDTH 530 0
DWIDTH 8 0
BBX 6 10 1 0
BITMAP
18
24
44
44
C4
8C
88
88
90
60
ENDCHAR
STARTCHAR one
ENCODING 49
SWIDTH 530 0
DWIDTH 8 0
BBX 5 10 1 0
BITMAP
38
08
08
10
10
10
20
20
20
F8
ENDCHAR
STARTCHAR two
ENCODING 50
SWIDTH 530 0
DWIDTH 8 0
BBX 6 10 1 0
BITMAP
38
64
04
04
08
10
20
40
88
F8
ENDCHAR
STARTCHAR three
ENCODING 51
SWIDTH 530 0
DWIDTH 8 0
BBX 6 10 1 0
BITMAP
38
64
04
0C
38
0C
04
84
C8
70
ENDCHAR
STARTCHAR four
ENCODING 52
SWIDTH 530 0
DWIDTH 8 0
BBX 6 10 1 0
BITMAP
18
10
30
20
68
48
88
FC
10
10
ENDCHAR
STARTCHAR five
ENCODING 53
SWIDTH 530 0
DWIDTH 8 0
BBX 7 10 1 0
BITMAP
3E
20
20
40
78
0C
04
04
C8
70
ENDCHAR
STARTCHAR six
ENCODING 54
SWIDTH 530 0
DWIDTH 8 0
BBX 6 10 1 0
BITMAP
1C
24
40
40
B8
CC
84
84
C8
70
ENDCHAR
STARTCHAR seven
ENCODING 55
SWIDTH 530 0
DWIDTH 8 0
BBX 6 10 1 0
BITMAP
FC
84
08
18
10
30
20
60
40
40
ENDCHAR
STARTCHAR eight
ENCODING 56
SWIDTH 530 0
DWIDTH 8 0
BBX 6 10 1 0
BITMAP
38
44
44
68
30
58
88
88
88
70
ENDCHAR
STARTCHAR nine
ENCODING 57
SWIDTH 530 0
DWIDTH 8 0
BBX 6 10 1 0
BITMAP
38
4C
84
84
CC
74
08
08
90
E0
ENDCHAR
STARTCHAR colon
ENCODING 58
SWIDTH 265 0
DWIDTH 4 0
BBX 2 7 1 0
BITMAP
40
40
00
00
00
80
80
ENDCHAR
STARTCHAR semicolon
ENCODING 59
SWIDTH 265 0
DWIDTH 4 0
BBX 3 8 0 -1
BITMAP
20
20
00
00
00
40
40
80
ENDCHAR
STARTCHAR less
ENCODING 60
SWIDTH 570 0
DWIDTH 8 0
BBX 7 7 0 0
BITMAP
02
0C
30
C0
30
0C
02
ENDCHAR
STARTCHAR equal
ENCODING 61
SWIDTH 570 0
DWIDTH 8 0
BBX 7 4 0 2
BITMAP
FE
00
00
FE
ENDCHAR
STARTCHAR greater
ENCODING 62
SWIDTH 570 0
DWIDTH 8 0
BBX 7 7 0 0
BITMAP
80
60
18
06
18
60
80
ENDCHAR
STARTCHAR question
ENCODING 63
SWIDTH 425 0
DWIDTH 6 0
BBX 4 10 1 0
BITMAP
60
90
10
20
40
80
C0
00
80
80
ENDCHAR
STARTCHAR at
ENCODING 64
SWIDTH 794 0
DWIDTH 11 0
BBX 10 10 0 0
BITMAP
1F00
2080
4740
8940
9240
A640
AA80
B300
4000
3F00
ENDCHAR
STARTCHAR A
ENCODING 65
SWIDTH 624 0
DWIDTH 9 0
BBX 9 10 -1 0
BITMAP
0200
0600
0A00
0A00
1200
1F00
2100
2100
4100
E380
ENDCHAR
STARTCHAR B
ENCODING 66
SWIDTH 632 0
DWIDTH 9 0
BBX 8 10 0 0
BITMAP
3E
11
31
22
3C
22
62
42
46
FC
ENDCHAR
STARTCHAR C
ENCODING 67
SWIDTH 661 0
DWIDTH 10 0
BBX 9 10 1 0
BITMAP
0F80
3080
6000
4000
C000
8000
8000
8100
4300
3E00
ENDCHAR
STARTCHAR D
ENCODING 68
SWIDTH 763 0
DWIDTH 11 0
BBX 10 10 0 0
BITMAP
3F00
1080
3040
2040
2040
20C0
6080
4180
4300
FC00
ENDCHAR
STARTCHAR E
ENCODING 69
SWIDTH 596 0
DWIDTH 8 0
BBX 8 10 0 0
BITMAP
3F
11
30
22
3C
24
60
40
42
FE
ENDCHAR
STARTCHAR F
ENCODING 70
SWIDTH 571 0
DWIDTH 8 0
BBX 8 10 0 0
BITMAP
3F
11
30
22
3C
24
60
40
40
E0
ENDCHAR
STARTCHAR G
ENCODING 71
SWIDTH 709 0
DWIDTH 10 0
BBX 9 10 1 0
BITMAP
0F80
3080
6000
4000
C000
8000
8380
8100
4300
3E00
ENDCHAR
STARTCHAR H
ENCODING 72
SWIDTH 775 0
DWIDTH 11 0
BBX 11 10 0 0
BITMAP
38E0
1040
30C0
2080
3F80
2080
6180
4100
4100
E380
ENDCHAR
STARTCHAR I
ENCODING 73
SWIDTH 345 0
DWIDTH 5 0
BBX 5 10 0 0
BITMAP
38
10
30
20
20
20
60
40
40
E0
ENDCHAR
STARTCHAR J
ENCODING 74
SWIDTH 352 0
DWIDTH 5 0
BBX 6 12 -1 -2
BITMAP
1C
08
08
18
10
10
10
30
20
20
20
C0
ENDCHAR
STARTCHAR K
ENCODING 75
SWIDTH 650 0
DWIDTH 10 0
BBX 10 10 0 0
BITMAP
3BC0
1100
3200
2400
2800
3C00
6400
4200
4300
E180
ENDCHAR
STARTCHAR L
ENCODING 76
SWIDTH 565 0
DWIDTH 8 0
BBX 7 10 0 0
BITMAP
38
10
30
20
20
20
60
40
42
FE
ENDCHAR
STARTCHAR M
ENCODING 77
SWIDTH 920 0
DWIDTH 13 0
BBX 13 10 0 0
BITMAP
3018
1030
1850
28B0
28A0
2D20
4660
4440
4440
E0E0
ENDCHAR
STARTCHAR N
ENCODING 78
SWIDTH 763 0
DWIDTH 11 0
BBX 11 10 0 0
BITMAP
30E0
1840
1840
2880
2480
2480
2280
4300
4300
E100
ENDCHAR
STARTCHAR O
ENCODING 79
SWIDTH 753 0
DWIDTH 12 0
BBX 10 10 1 0
BITMAP
0F00
3080
6040
4040
C040
80C0
8080
8180
4300
3C00
ENDCHAR
STARTCHAR P
ENCODING 80
SWIDTH 614 0
DWIDTH 8 0
BBX 8 10 0 0
BITMAP
3E
13
31
21
22
3C
60
40
40
E0
ENDCHAR
STARTCHAR Q
ENCODING 81
SWIDTH 753 0
DWIDTH 12 0
BBX 10 13 1 -3
BITMAP
0F00
3080
6040
4040
C040
80C0
8080
8180
4300
3C00
0800
0400
0380
ENDCHAR
STARTCHAR R
ENCODING 82
SWIDTH 640 0
DWIDTH 9 0
BBX 8 10 0 0
BITMAP
3E
13
31
21
22
3C
64
46
42
E3
ENDCHAR
STARTCHAR S
ENCODING 83
SWIDTH 533 0
DWIDTH 8 0
BBX 8 10 0 0
BITMAP
0F
11
20
20
38
0E
02
02
84
F8
ENDCHAR
STARTCHAR T
ENCODING 84
SWIDTH 606 0
DWIDTH 9 0
BBX 9 10 1 0
BITMAP
FF80
8880
0800
1800
1000
1000
3000
2000
2000
7000
ENDCHAR
STARTCHAR U
ENCODING 85
SWIDTH 794 0
DWIDTH 12 0
BBX 11 10 1 0
BITMAP
70E0
2040
60C0
4080
4080
C180
8100
8100
C200
7C00
ENDCHAR
STARTCHAR V
ENCODING 86
SWIDTH 637 0
DWIDTH 10 0
BBX 9 10 1 0
BITMAP
E380
4100
4200
4200
6400
2400
2800
2800
3000
2000
ENDCHAR
STARTCHAR W
ENCODING 87
SWIDTH 946 0
DWIDTH 14 0
BBX 13 10 1 0
BITMAP
E238
4210
4210
4620
6720
2940
2940
3180
3180
2100
ENDCHAR
STARTCHAR X
ENCODING 88
SWIDTH 632 0
DWIDTH 9 0
BBX 9 10 0 0
BITMAP
3B80
1100
1200
0A00
0C00
1400
1400
2200
4200
E700
ENDCHAR
STARTCHAR Y
ENCODING 89
SWIDTH 591 0
DWIDTH 10 0
BBX 9 10 1 0
BITMAP
E380
4100
6200
2400
3800
1000
1000
2000
2000
7000
ENDCHAR
STARTCHAR Z
ENCODING 90
SWIDTH 622 0
DWIDTH 9 0
BBX 9 10 0 0
BITMAP
7F80
4100
0200
0400
0800
1000
2000
4000
8100
FF00
ENDCHAR
STARTCHAR bracketleft
ENCODING 91
SWIDTH 330 0
DWIDTH 5 0
BBX 5 12 0 -2
BITMAP
38
20
20
20
40
40
40
40
80
80
80
E0
ENDCHAR
STARTCHAR backslash
ENCODING 92
SWIDTH 390 0
DWIDTH 6 0
BBX 3 10 1 0
BITMAP
80
80
80
40
40
40
40
20
20
20
ENDCHAR
STARTCHAR bracketright
ENCODING 93
SWIDTH 330 0
DWIDTH 5 0
BBX 5 12 -1 -2
BITMAP
38
08
08
08
10
10
10
10
20
20
20
E0
ENDCHAR
STARTCHAR asciicircum
ENCODING 94
SWIDTH 570 0
DWIDTH 8 0
BBX 7 6 0 4
BITMAP
10
28
28
44
44
82
ENDCHAR
STARTCHAR underscore
ENCODING 95
SWIDTH 500 0
DWIDTH 7 0
BBX 7 1 0 -2
BITMAP
FE
ENDCHAR
STARTCHAR quoteleft
ENCODING 96
SWIDTH 216 0
DWIDTH 4 0
BBX 2 3 2 7
BITMAP
40
80
80
ENDCHAR
STARTCHAR a
ENCODING 97
SWIDTH 561 0
DWIDTH 8 0
BBX 7 7 1 0
BITMAP
3C
44
C4
88
88
9A
EC
ENDCHAR
STARTCHAR b
ENCODING 98
SWIDTH 559 0
DWIDTH 8 0
BBX 6 11 1 0
BITMAP
60
20
20
40
5C
64
44
44
8C
88
F0
ENDCHAR
STARTCHAR c
ENCODING 99
SWIDTH 441 0
DWIDTH 7 0
BBX 5 7 1 0
BITMAP
38
48
C0
80
80
88
70
ENDCHAR
STARTCHAR d
ENCODING 100
SWIDTH 587 0
DWIDTH 9 0
BBX 7 11 1 0
BITMAP
06
02
02
04
3C
44
C4
88
88
9A
6C
ENDCHAR
STARTCHAR e
ENCODING 101
SWIDTH 453 0
DWIDTH 7 0
BBX 5 7 1 0
BITMAP
38
48
C8
90
E0
88
70
ENDCHAR
STARTCHAR f
ENCODING 102
SWIDTH 315 0
DWIDTH 5 0
BBX 9 14 -2 -3
BITMAP
0380
0480
0400
0400
1E00
0800
0800
0800
0800
1000
1000
1000
9000
E000
ENDCHAR
STARTCHAR g
ENCODING 103
SWIDTH 499 0
DWIDTH 7 0
BBX 9 10 -1 -3
BITMAP
1F80
3200
2200
2400
1800
2000
3800
4600
8200
7C00
ENDCHAR
STARTCHAR h
ENCODING 104
SWIDTH 607 0
DWIDTH 9 0
BBX 8 11 1 0
BITMAP
60
20
20
40
4C
52
62
42
84
85
86
ENDCHAR
STARTCHAR i
ENCODING 105
SWIDTH 317 0
DWIDTH 4 0
BBX 3 10 1 0
BITMAP
20
20
00
C0
40
40
80
80
A0
C0
ENDCHAR
STARTCHAR j
ENCODING 106
SWIDTH 309 0
DWIDTH 4 0
BBX 6 14 -2 -3
BITMAP
04
04
00
00
18
08
08
08
10
10
10
10
90
E0
ENDCHAR
STARTCHAR k
ENCODING 107
SWIDTH 545 0
DWIDTH 8 0
BBX 7 11 1 0
BITMAP
60
20
20
20
46
4A
70
50
90
8A
8C
ENDCHAR
STARTCHAR l
ENCODING 108
SWIDTH 306 0
DWIDTH 4 0
BBX 3 11 1 0
BITMAP
60
20
20
40
40
40
40
80
80
A0
C0
ENDCHAR
STARTCHAR m
ENCODING 109
SWIDTH 912 0
DWIDTH 14 0
BBX 13 7 1 0
BITMAP
CC60
5290
6310
4210
8420
8428
8430
ENDCHAR
STARTCHAR n
ENCODING 110
SWIDTH 618 0
DWIDTH 9 0
BBX 8 7 1 0
BITMAP
CC
52
62
42
84
85
86
ENDCHAR
STARTCHAR o
ENCODING 111
SWIDTH 537 0
DWIDTH 8 0
BBX 6 7 1 0
BITMAP
38
44
C4
84
8C
88
70
ENDCHAR
STARTCHAR p
ENCODING 112
SWIDTH 590 0
DWIDTH 8 0
BBX 7 10 0 -3
BITMAP
6C
32
22
62
46
44
F8
80
80
80
ENDCHAR
STARTCHAR q
ENCODING 113
SWIDTH 559 0
DWIDTH 8 0
BBX 6 11 1 -3
BITMAP
04
3C
44
C4
8C
88
98
68
10
10
10
ENDCHAR
STARTCHAR r
ENCODING 114
SWIDTH 402 0
DWIDTH 6 0
BBX 5 7 1 0
BITMAP
D8
60
40
40
80
80
80
ENDCHAR
STARTCHAR s
ENCODING 115
SWIDTH 389 0
DWIDTH 6 0
BBX 6 7 0 0
BITMAP
38
4C
60
30
18
C8
70
ENDCHAR
STARTCHAR t
ENCODING 116
SWIDTH 341 0
DWIDTH 5 0
BBX 4 9 1 0
BITMAP
20
20
F0
40
40
40
80
A0
C0
ENDCHAR
STARTCHAR u
ENCODING 117
SWIDTH 618 0
DWIDTH 9 0
BBX 8 7 1 0
BITMAP
C2
42
42
84
8C
95
66
ENDCHAR
STARTCHAR v
ENCODING 118
SWIDTH 510 0
DWIDTH 7 0
BBX 6 7 1 0
BITMAP
CC
44
44
88
88
90
60
ENDCHAR
STARTCHAR w
ENCODING 119
SWIDTH 785 0
DWIDTH 11 0
BBX 10 7 1 0
BITMAP
C4C0
4440
4440
8880
8880
9900
6600
ENDCHAR
STARTCHAR x
ENCODING 120
SWIDTH 516 0
DWIDTH 8 0
BBX 8 7 0 0
BITMAP
33
14
18
08
18
25
C6
ENDCHAR
STARTCHAR y
ENCODING 121
SWIDTH 468 0
DWIDTH 7 0
BBX 8 10 -1 -3
BITMAP
63
21
22
14
14
18
10
10
A0
C0
ENDCHAR
STARTCHAR z
ENCODING 122
SWIDTH 468 0
DWIDTH 7 0
BBX 7 7 0 0
BITMAP
3E
44
08
10
22
62
9C
ENDCHAR
STARTCHAR braceleft
ENCODING 123
SWIDTH 340 0
DWIDTH 5 0
BBX 4 12 1 -2
BITMAP
10
20
20
20
40
80
40
40
80
80
80
40
ENDCHAR
STARTCHAR bar
ENCODING 124
SWIDTH 270 0
DWIDTH 4 0
BBX 1 10 2 0
BITMAP
80
80
80
80
80
80
80
80
80
80
ENDCHAR
STARTCHAR braceright
ENCODING 125
SWIDTH 340 0
DWIDTH 5 0
BBX 4 12 0 -2
BITMAP
20
10
10
20
20
10
20
40
40
40
40
80
ENDCHAR
STARTCHAR asciitilde
ENCODING 126
SWIDTH 570 0
DWIDTH 8 0
BBX 7 2 0 3
BITMAP
72
9C
ENDCHAR
STARTCHAR Aogonek
ENCODING 161
SWIDTH 624 0
DWIDTH 9 0
BBX 9 13 -1 -3
BITMAP
0200
0600
0A00
0A00
1200
1F00
2100
2100
4100
E380
0100
0200
0380
ENDCHAR
STARTCHAR breve
ENCODING 162
SWIDTH 405 0
DWIDTH 6 0
BBX 4 2 1 8
BITMAP
90
60
ENDCHAR
STARTCHAR Lslash
ENCODING 163
SWIDTH 571 0
DWIDTH 8 0
BBX 7 10 0 0
BITMAP
38
10
30
20
38
20
E0
40
42
FE
ENDCHAR
STARTCHAR currency
ENCODING 164
SWIDTH 530 0
DWIDTH 8 0
BBX 6 6 1 2
BITMAP
B4
48
84
84
48
B4
ENDCHAR
STARTCHAR Lcaron
ENCODING 165
SWIDTH 565 0
DWIDTH 8 0
BBX 7 10 0 0
BITMAP
3A
12
34
20
20
20
60
40
42
FE
ENDCHAR
STARTCHAR Sacute
ENCODING 166
SWIDTH 533 0
DWIDTH 8 0
BBX 8 12 0 0
BITMAP
01
02
00
1F
31
20
30
1C
06
02
86
FC
ENDCHAR
STARTCHAR section
ENCODING 167
SWIDTH 530 0
DWIDTH 8 0
BBX 7 12 0 -2
BITMAP
1C
26
60
B0
98
CC
64
34
18
08
D0
60
ENDCHAR
STARTCHAR dieresis
ENCODING 168
SWIDTH 400 0
DWIDTH 6 0
BBX 3 2 2 8
BITMAP
A0
A0
ENDCHAR
STARTCHAR Scaron
ENCODING 169
SWIDTH 533 0
DWIDTH 8 0
BBX 8 12 0 0
BITMAP
0A
04
00
1F
31
20
30
1C
06
02
86
FC
ENDCHAR
STARTCHAR Scedilla
ENCODING 170
SWIDTH 533 0
DWIDTH 8 0
BBX 8 13 0 -3
BITMAP
0F
11
20
20
38
0E
02
02
84
F8
20
10
70
ENDCHAR
STARTCHAR Tcaron
ENCODING 171
SWIDTH 606 0
DWIDTH 9 0
BBX 9 12 1 0
BITMAP
1400
0800
0000
FF80
8880
1800
1800
1000
3000
3000
2000
7000
ENDCHAR
STARTCHAR Zacute
ENCODING 172
SWIDTH 622 0
DWIDTH 9 0
BBX 9 12 0 0
BITMAP
0200
0400
0000
3F80
2100
0200
0400
0800
1000
2000
4100
FF00
ENDCHAR
STARTCHAR hyphen
ENCODING 173
SWIDTH 392 0
DWIDTH 6 0
BBX 4 1 1 3
BITMAP
F0
ENDCHAR
STARTCHAR Zcaron
ENCODING 174
SWIDTH 622 0
DWIDTH 9 0
BBX 9 12 0 0
BITMAP
0A00
0400
0000
3F80
2100
0200
0400
0800
1000
2000
4100
FF00
ENDCHAR
STARTCHAR Zdotaccent
ENCODING 175
SWIDTH 622 0
DWIDTH 9 0
BBX 9 12 0 0
BITMAP
0400
0400
0000
3F80
2100
0200
0400
0800
1000
2000
4100
FF00
ENDCHAR
STARTCHAR degree
ENCODING 176
SWIDTH 400 0
DWIDTH 8 0
BBX 5 4 2 6
BITMAP
70
88
88
70
ENDCHAR
STARTCHAR aogonek
ENCODING 177
SWIDTH 561 0
DWIDTH 8 0
BBX 7 10 1 -3
BITMAP
3C
44
C4
88
88
9A
EC
08
10
1C
ENDCHAR
STARTCHAR ogonek
ENCODING 178
SWIDTH 473 0
DWIDTH 7 0
BBX 3 3 2 -3
BITMAP
40
80
E0
ENDCHAR
STARTCHAR lslash
ENCODING 179
SWIDTH 318 0
DWIDTH 4 0
BBX 5 11 0 0
BITMAP
30
10
10
28
30
60
A0
40
40
50
60
ENDCHAR
STARTCHAR acute
ENCODING 180
SWIDTH 400 0
DWIDTH 6 0
BBX 2 2 2 8
BITMAP
40
80
ENDCHAR
STARTCHAR lcaron
ENCODING 181
SWIDTH 229 0
DWIDTH 3 0
BBX 5 11 1 0
BITMAP
68
28
30
40
40
40
40
80
80
A0
C0
ENDCHAR
STARTCHAR sacute
ENCODING 182
SWIDTH 389 0
DWIDTH 6 0
BBX 6 10 0 0
BITMAP
04
08
00
38
4C
60
30
18
C8
70
ENDCHAR
STARTCHAR caron
ENCODING 183
SWIDTH 337 0
DWIDTH 5 0
BBX 3 2 1 8
BITMAP
A0
40
ENDCHAR
STARTCHAR cedilla
ENCODING 184
SWIDTH 473 0
DWIDTH 7 0
BBX 3 3 2 -3
BITMAP
40
20
E0
ENDCHAR
STARTCHAR scaron
ENCODING 185
SWIDTH 389 0
DWIDTH 6 0
BBX 6 10 0 0
BITMAP
14
08
00
3C
44
60
18
08
88
F0
ENDCHAR
STARTCHAR scedilla
ENCODING 186
SWIDTH 389 0
DWIDTH 6 0
BBX 6 10 0 -3
BITMAP
38
4C
60
30
18
C8
70
40
20
E0
ENDCHAR
STARTCHAR tcaron
ENCODING 187
SWIDTH 341 0
DWIDTH 5 0
BBX 6 9 1 0
BITMAP
24
24
F8
40
40
40
80
A0
C0
ENDCHAR
STARTCHAR zacute
ENCODING 188
SWIDTH 468 0
DWIDTH 7 0
BBX 7 10 0 0
BITMAP
04
08
00
3E
44
08
10
22
62
9C
ENDCHAR
STARTCHAR hungarumlaut
ENCODING 189
SWIDTH 405 0
DWIDTH 6 0
BBX 4 2 1 8
BITMAP
50
A0
ENDCHAR
STARTCHAR zcaron
ENCODING 190
SWIDTH 468 0
DWIDTH 7 0
BBX 7 10 0 0
BITMAP
14
08
00
3E
44
08
10
22
62
9C
ENDCHAR
STARTCHAR zdotaccent
ENCODING 191
SWIDTH 468 0
DWIDTH 7 0
BBX 7 10 0 0
BITMAP
08
08
00
3E
44
08
10
22
62
9C
ENDCHAR
STARTCHAR Racute
ENCODING 192
SWIDTH 640 0
DWIDTH 9 0
BBX 8 12 0 0
BITMAP
04
08
00
7F
33
31
23
7E
64
66
46
E3
ENDCHAR
STARTCHAR Aacute
ENCODING 193
SWIDTH 624 0
DWIDTH 9 0
BBX 9 12 -1 0
BITMAP
0100
0200
0000
0200
0600
0A00
0A00
1200
3F00
2100
4100
E380
ENDCHAR
STARTCHAR Acircumflex
ENCODING 194
SWIDTH 624 0
DWIDTH 9 0
BBX 9 12 -1 0
BITMAP
0200
0500
0000
0200
0600
0A00
0A00
1200
3F00
2100
4100
E380
ENDCHAR
STARTCHAR Abreve
ENCODING 195
SWIDTH 624 0
DWIDTH 9 0
BBX 9 12 -1 0
BITMAP
0480
0300
0000
0200
0600
0A00
0A00
1200
3F00
2100
4100
E380
ENDCHAR
STARTCHAR Adieresis
ENCODING 196
SWIDTH 624 0
DWIDTH 9 0
BBX 9 12 -1 0
BITMAP
0500
0500
0000
0200
0600
0A00
0A00
1200
3F00
2100
4100
E380
ENDCHAR
STARTCHAR Lacute
ENCODING 197
SWIDTH 565 0
DWIDTH 8 0
BBX 7 12 0 0
BITMAP
04
08
00
38
30
30
20
20
60
60
42
FE
ENDCHAR
STARTCHAR Cacute
ENCODING 198
SWIDTH 661 0
DWIDTH 10 0
BBX 9 12 1 0
BITMAP
0100
0200
0000
1F80
7080
6000
C000
C000
8000
8000
C300
7C00
ENDCHAR
STARTCHAR Ccedilla
ENCODING 199
SWIDTH 661 0
DWIDTH 10 0
BBX 9 13 1 -3
BITMAP
0F80
3080
6000
4000
C000
8000
8000
8100
4300
3E00
1000
0800
3800
ENDCHAR
STARTCHAR Ccaron
ENCODING 200
SWIDTH 661 0
DWIDTH 10 0
BBX 9 12 1 0
BITMAP
0500
0200
0000
1F80
7080
6000
C000
C000
8000
8000
C300
7C00
ENDCHAR
STARTCHAR Eacute
ENCODING 201
SWIDTH 596 0
DWIDTH 8 0
BBX 8 12 0 0
BITMAP
02
04
00
3F
11
30
22
3C
64
40
42
FE
ENDCHAR
STARTCHAR Eogonek
ENCODING 202
SWIDTH 596 0
DWIDTH 8 0
BBX 8 13 0 -3
BITMAP
3F
11
30
22
3C
24
60
40
42
FE
08
10
1C
ENDCHAR
STARTCHAR Edieresis
ENCODING 203
SWIDTH 596 0
DWIDTH 8 0
BBX 8 12 0 0
BITMAP
0A
0A
00
3F
11
30
22
3C
64
40
42
FE
ENDCHAR
STARTCHAR Ecaron
ENCODING 204
SWIDTH 596 0
DWIDTH 8 0
BBX 8 12 0 0
BITMAP
0A
04
00
3F
11
30
22
3C
64
40
42
FE
ENDCHAR
STARTCHAR Iacute
ENCODING 205
SWIDTH 345 0
DWIDTH 5 0
BBX 5 12 0 0
BITMAP
08
10
00
38
10
30
20
20
20
60
40
E0
ENDCHAR
STARTCHAR Icircumflex
ENCODING 206
SWIDTH 345 0
DWIDTH 5 0
BBX 5 12 0 0
BITMAP
10
28
00
38
10
30
20
20
20
60
40
E0
ENDCHAR
STARTCHAR Dcaron
ENCODING 207
SWIDTH 763 0
DWIDTH 11 0
BBX 10 12 0 0
BITMAP
0A00
0400
0000
7F80
30C0
3040
2040
20C0
60C0
6080
4180
FF00
ENDCHAR
STARTCHAR Eth
ENCODING 208
SWIDTH 770 0
DWIDTH 11 0
BBX 10 10 0 0
BITMAP
3F00
1080
3040
2040
7840
20C0
6080
4180
4300
FC00
ENDCHAR
STARTCHAR Nacute
ENCODING 209
SWIDTH 763 0
DWIDTH 11 0
BBX 11 12 0 0
BITMAP
0080
0100
0000
38E0
1840
38C0
2C80
2480
2680
6380
4300
E300
ENDCHAR
STARTCHAR Ncaron
ENCODING 210
SWIDTH 763 0
DWIDTH 11 0
BBX 11 12 0 0
BITMAP
0280
0100
0000
38E0
1840
38C0
2C80
2480
2680
6380
4300
E300
ENDCHAR
STARTCHAR Oacute
ENCODING 211
SWIDTH 753 0
DWIDTH 12 0
BBX 10 12 1 0
BITMAP
0100
0200
0000
0F00
3080
6040
4040
C0C0
8080
8180
4300
3C00
ENDCHAR
STARTCHAR Ocircumflex
ENCODING 212
SWIDTH 753 0
DWIDTH 12 0
BBX 10 12 1 0
BITMAP
0400
0A00
0000
0F00
3080
6040
4040
C0C0
8080
8180
4300
3C00
ENDCHAR
STARTCHAR Ohungarumlaut
ENCODING 213
SWIDTH 753 0
DWIDTH 12 0
BBX 10 12 1 0
BITMAP
0280
0500
0000
0F00
3080
6040
4040
C0C0
8080
8180
4300
3C00
ENDCHAR
STARTCHAR Odieresis
ENCODING 214
SWIDTH 753 0
DWIDTH 12 0
BBX 10 12 1 0
BITMAP
0500
0500
0000
0F00
3080
6040
4040
C0C0
8080
8180
4300
3C00
ENDCHAR
STARTCHAR multiply
ENCODING 215
SWIDTH 570 0
DWIDTH 8 0
BBX 7 7 0 0
BITMAP
82
44
28
10
28
44
82
ENDCHAR
STARTCHAR Rcaron
ENCODING 216
SWIDTH 640 0
DWIDTH 9 0
BBX 8 12 0 0
BITMAP
0A
04
00
7F
33
31
23
7E
64
66
46
E3
ENDCHAR
STARTCHAR Uring
ENCODING 217
SWIDTH 794 0
DWIDTH 12 0
BBX 11 12 1 0
BITMAP
0300
0500
0600
70E0
2040
60C0
4080
4080
C180
8100
C300
7E00
ENDCHAR
STARTCHAR Uacute
ENCODING 218
SWIDTH 794 0
DWIDTH 12 0
BBX 11 12 1 0
BITMAP
0100
0200
0000
70E0
2040
60C0
4080
4080
C180
8100
C300
7E00
ENDCHAR
STARTCHAR Uhungarumlaut
ENCODING 219
SWIDTH 794 0
DWIDTH 12 0
BBX 11 12 1 0
BITMAP
0280
0500
0000
70E0
2040
60C0
4080
4080
C180
8100
C300
7E00
ENDCHAR
STARTCHAR Udieresis
ENCODING 220
SWIDTH 794 0
DWIDTH 12 0
BBX 11 12 1 0
BITMAP
0500
0500
0000
70E0
2040
60C0
4080
4080
C180
8100
C300
7E00
ENDCHAR
STARTCHAR Yacute
ENCODING 221
SWIDTH 591 0
DWIDTH 10 0
BBX 9 12 1 0
BITMAP
0400
0800
0000
E380
4100
6200
2400
3800
1000
2000
2000
7000
ENDCHAR
STARTCHAR Tcedilla
ENCODING 222
SWIDTH 606 0
DWIDTH 9 0
BBX 9 13 1 -3
BITMAP
FF80
8880
0800
1800
1000
1000
3000
2000
2000
7000
4000
2000
E000
ENDCHAR
STARTCHAR germandbls
ENCODING 223
SWIDTH 577 0
DWIDTH 8 0
BBX 10 14 -2 -3
BITMAP
0380
0440
0440
0480
1900
0900
0980
08C0
0840
1240
1380
1000
9000
E000
ENDCHAR
STARTCHAR racute
ENCODING 224
SWIDTH 402 0
DWIDTH 6 0
BBX 5 10 1 0
BITMAP
10
20
00
D8
60
40
40
80
80
80
ENDCHAR
STARTCHAR aacute
ENCODING 225
SWIDTH 561 0
DWIDTH 8 0
BBX 7 10 1 0
BITMAP
04
08
00
3C
44
C4
88
88
9A
EC
ENDCHAR
STARTCHAR acircumflex
ENCODING 226
SWIDTH 561 0
DWIDTH 8 0
BBX 7 10 1 0
BITMAP
08
14
00
3C
44
C4
88
88
9A
EC
ENDCHAR
STARTCHAR abreve
ENCODING 227
SWIDTH 561 0
DWIDTH 8 0
BBX 7 10 1 0
BITMAP
24
18
00
3C
44
C4
88
88
9A
EC
ENDCHAR
STARTCHAR adieresis
ENCODING 228
SWIDTH 561 0
DWIDTH 8 0
BBX 7 10 1 0
BITMAP
14
14
00
3C
44
C4
88
88
9A
EC
ENDCHAR
STARTCHAR lacute
ENCODING 229
SWIDTH 306 0
DWIDTH 4 0
BBX 4 12 1 0
BITMAP
10
20
00
60
20
60
40
40
40
80
A0
E0
ENDCHAR
STARTCHAR cacute
ENCODING 230
SWIDTH 441 0
DWIDTH 7 0
BBX 5 10 1 0
BITMAP
08
10
00
38
48
C0
80
80
88
70
ENDCHAR
STARTCHAR ccedilla
ENCODING 231
SWIDTH 441 0
DWIDTH 7 0
BBX 5 10 1 -3
BITMAP
38
48
C0
80
80
88
70
40
20
E0
ENDCHAR
STARTCHAR ccaron
ENCODING 232
SWIDTH 441 0
DWIDTH 7 0
BBX 5 10 1 0
BITMAP
28
10
00
38
48
C0
80
80
88
70
ENDCHAR
STARTCHAR eacute
ENCODING 233
SWIDTH 453 0
DWIDTH 7 0
BBX 5 10 1 0
BITMAP
08
10
00
38
48
C8
90
E0
88
70
ENDCHAR
STARTCHAR eogonek
ENCODING 234
SWIDTH 453 0
DWIDTH 7 0
BBX 5 10 1 -3
BITMAP
38
48
C8
90
E0
88
70
20
40
70
ENDCHAR
STARTCHAR edieresis
ENCODING 235
SWIDTH 453 0
DWIDTH 7 0
BBX 5 10 1 0
BITMAP
28
28
00
38
48
C8
90
E0
88
70
ENDCHAR
STARTCHAR ecaron
ENCODING 236
SWIDTH 453 0
DWIDTH 7 0
BBX 5 10 1 0
BITMAP
28
10
00
38
48
C8
90
E0
88
70
ENDCHAR
STARTCHAR iacute
ENCODING 237
SWIDTH 317 0
DWIDTH 4 0
BBX 3 10 1 0
BITMAP
40
80
00
C0
40
40
80
80
A0
C0
ENDCHAR
STARTCHAR icircumflex
ENCODING 238
SWIDTH 317 0
DWIDTH 4 0
BBX 3 10 1 0
BITMAP
40
A0
00
C0
40
40
80
80
A0
C0
ENDCHAR
STARTCHAR dcaron
ENCODING 239
SWIDTH 456 0
DWIDTH 7 0
BBX 9 11 1 0
BITMAP
0680
0280
0300
0400
3C00
4400
C400
8800
8800
9A00
6C00
ENDCHAR
STARTCHAR dmacron
ENCODING 240
SWIDTH 587 0
DWIDTH 9 0
BBX 9 11 1 0
BITMAP
0600
0200
1F80
0400
3C00
4400
C400
8800
8800
9A00
6C00
ENDCHAR
STARTCHAR nacute
ENCODING 241
SWIDTH 618 0
DWIDTH 9 0
BBX 8 10 1 0
BITMAP
02
04
00
CC
52
62
42
84
85
86
ENDCHAR
STARTCHAR ncaron
ENCODING 242
SWIDTH 618 0
DWIDTH 9 0
BBX 8 10 1 0
BITMAP
0A
04
00
CC
52
62
42
84
85
86
ENDCHAR
STARTCHAR oacute
ENCODING 243
SWIDTH 537 0
DWIDTH 8 0
BBX 6 10 1 0
BITMAP
08
10
00
38
44
C4
84
8C
88
70
ENDCHAR
STARTCHAR ocircumflex
ENCODING 244
SWIDTH 537 0
DWIDTH 8 0
BBX 6 10 1 0
BITMAP
10
28
00
38
44
C4
84
8C
88
70
ENDCHAR
STARTCHAR ohungarumlaut
ENCODING 245
SWIDTH 537 0
DWIDTH 8 0
BBX 6 10 1 0
BITMAP
14
28
00
38
44
C4
84
8C
88
70
ENDCHAR
STARTCHAR odieresis
ENCODING 246
SWIDTH 537 0
DWIDTH 8 0
BBX 6 10 1 0
BITMAP
28
28
00
38
44
C4
84
8C
88
70
ENDCHAR
STARTCHAR divide
ENCODING 247
SWIDTH 570 0
DWIDTH 8 0
BBX 7 7 0 0
BITMAP
10
10
00
FE
00
10
10
ENDCHAR
STARTCHAR rcaron
ENCODING 248
SWIDTH 402 0
DWIDTH 6 0
BBX 5 10 1 0
BITMAP
50
20
00
D8
60
40
40
80
80
80
ENDCHAR
STARTCHAR uring
ENCODING 249
SWIDTH 618 0
DWIDTH 9 0
BBX 8 11 1 0
BITMAP
0C
14
18
00
C2
42
42
84
8C
95
66
ENDCHAR
STARTCHAR uacute
ENCODING 250
SWIDTH 618 0
DWIDTH 9 0
BBX 8 10 1 0
BITMAP
04
08
00
C2
42
42
84
8C
95
66
ENDCHAR
STARTCHAR uhungarumlaut
ENCODING 251
SWIDTH 618 0
DWIDTH 9 0
BBX 8 10 1 0
BITMAP
14
28
00
C2
42
42
84
8C
95
66
ENDCHAR
STARTCHAR udieresis
ENCODING 252
SWIDTH 618 0
DWIDTH 9 0
BBX 8 10 1 0
BITMAP
14
14
00
C2
42
42
84
8C
95
66
ENDCHAR
STARTCHAR yacute
ENCODING 253
SWIDTH 468 0
DWIDTH 7 0
BBX 8 13 -1 -3
BITMAP
04
08
00
63
21
22
14
14
18
10
10
A0
C0
ENDCHAR
STARTCHAR tcedilla
ENCODING 254
SWIDTH 341 0
DWIDTH 5 0
BBX 5 12 0 -3
BITMAP
10
10
78
20
20
20
40
50
60
40
20
E0
ENDCHAR
STARTCHAR dotaccent
ENCODING 255
SWIDTH 337 0
DWIDTH 5 0
BBX 1 2 2 8
BITMAP
80
80
ENDCHAR
ENDFONT
